<svg width="32" height="21" viewBox="0 0 32 21" fill="none" xmlns="http://www.w3.org/2000/svg">
<path d="M29.6034 -0.000335693H2.39656C1.07294 -0.000335693 0 1.0726 0 2.39623V18.5687C0 19.8922 1.07294 20.9652 2.39656 20.9652H29.6034C30.927 20.9652 32 19.8923 32 18.5687V2.39623C32 1.0726 30.9271 -0.000335693 29.6034 -0.000335693Z" fill="#41479B"/>
<path d="M31.9668 2.00004C31.7779 0.865103 30.792 -0.000396729 29.6034 -0.000396729H28.9799L18.7586 6.69629V-0.000334263H13.2414V6.69635L3.02012 -0.000334263H2.39656C1.208 -0.000334263 0.222063 0.865103 0.0331875 2.0001L8.76931 7.72385H0V13.2411H8.76931L0.0331875 18.9647C0.222063 20.0997 1.208 20.9652 2.39656 20.9652H3.02012L13.2414 14.2685V20.9652H18.7586V14.2685L28.9799 20.9652H29.6034C30.792 20.9652 31.7779 20.0997 31.9668 18.9647L23.2307 13.241H32V7.72373H23.2307L31.9668 2.00004Z" fill="#F5F5F5"/>
<path d="M17.6552 -0.000335693H14.3448V8.82723H0V12.1376H14.3448V20.9652H17.6552V12.1376H32V8.82723H17.6552V-0.000335693Z" fill="#FF4B55"/>
<path d="M1.54955 20.8107L13.211 13.241H11.1842L0.576489 20.1268C0.838315 20.4328 1.17295 20.668 1.54955 20.8107ZM21.6492 13.241H19.6225L30.9172 20.5726C31.234 20.3645 31.4971 20.0845 31.6852 19.7554L21.6492 13.241ZM0.253052 1.32461L10.1112 7.72379H12.1379L0.967177 0.472544C0.665885 0.696925 0.421316 0.988734 0.253052 1.32461ZM20.7854 7.72379L31.4126 0.825356C31.1478 0.520123 30.8103 0.28666 30.4314 0.146606L18.7586 7.72379H20.7854Z" fill="#FF4B55"/>
</svg>
